<svg width="35" height="43" viewBox="0 0 35 43" fill="none" xmlns="http://www.w3.org/2000/svg">
<g filter="url(#filter0_d_7742_310)">
<path d="M31.2356 13.0096V2.63441C31.2356 1.18176 30.0538 0 28.6012 0H5.49041C4.03776 0 2.856 1.18176 2.856 2.63441V12.9849C2.33133 13.4865 2 14.188 2 14.9698V17.5415C2 19.0118 3.15952 20.2053 4.61099 20.2826V28.7808C3.5483 29.4377 2.83235 30.6038 2.83235 31.9421C2.83235 33.9562 4.44077 35.5914 6.43923 35.6561V36.5363C6.43923 37.8967 7.54255 39 8.90357 39C10.2646 39 11.3678 37.8967 11.3678 36.5363V35.6679H22.6949V36.5363C22.6949 37.8967 23.7981 39 25.1593 39C26.5203 39 27.6234 37.8967 27.6234 36.5363V35.6561C29.6232 35.592 31.2317 33.9562 31.2317 31.9421C31.2317 30.6031 30.5158 29.4371 29.4518 28.7802V20.2813C30.9032 20.2041 32.0627 19.0104 32.0627 17.5409V14.9692C32.0627 14.2012 31.7436 13.5094 31.2356 13.0096ZM28.5554 2.63441V12.2137H28.0594L27.8893 10.9193C27.6864 9.38819 26.3685 8.23324 24.8243 8.23324H9.23868C7.69431 8.23324 6.37644 9.38819 6.17367 10.92L6.00345 12.2137H5.53356L5.49041 2.68031L28.5554 2.63441ZM23.0457 27.0998H26.7716V28.2168H21.4084V21.3812C21.4084 20.5469 20.7292 19.8683 19.8955 19.8683H14.1648C13.3311 19.8683 12.6519 20.5469 12.6519 21.3812V28.2168H7.29138V27.0998H11.046C11.1743 27.0998 11.2778 26.9552 11.2778 26.7772V23.5027C11.2778 23.3247 11.1743 23.1808 11.046 23.1808H7.29138V19.5896C7.29138 19.11 7.68134 18.72 8.16168 18.72H25.9014C26.3817 18.72 26.7717 19.11 26.7717 19.5896V23.1808H23.0457C22.9175 23.1808 22.8129 23.3247 22.8129 23.5027V26.7772C22.8127 26.9552 22.9174 27.0998 23.0457 27.0998ZM13.992 26.1843V25.4593H20.0682V26.1843H13.992ZM20.0683 27.5245V28.2168H13.992V27.5245H20.0683ZM13.992 24.1192V23.3935H20.0682V24.1192H13.992ZM13.992 22.0533V21.3812C13.992 21.2857 14.0691 21.2085 14.1647 21.2085H19.8955C19.991 21.2085 20.0682 21.2857 20.0682 21.3812V22.0533H13.992ZM7.51764 16.1052L8.16546 11.1837C8.23737 10.6478 8.69814 10.2435 9.2386 10.2435H24.8242C25.3647 10.2435 25.8253 10.6478 25.8973 11.1831L26.5451 16.1053C26.3358 16.0661 26.1211 16.0399 25.9013 16.0399H8.1616C7.9403 16.0398 7.727 16.0659 7.51764 16.1052ZM3.34019 17.5415V14.9698C3.34019 14.1892 3.97489 13.5539 4.7563 13.5539H5.82686L5.30596 17.5002C4.9971 17.9216 4.77595 18.4084 4.67654 18.9412C3.93441 18.898 3.34019 18.294 3.34019 17.5415ZM27.5057 33.6577H6.55837C5.61207 33.6577 4.8426 32.8881 4.8426 31.9421C4.8426 30.9965 5.61207 30.2269 6.55837 30.2269H27.5057C28.452 30.2269 29.2215 30.9965 29.2215 31.9421C29.2215 32.8882 28.452 33.6577 27.5057 33.6577ZM30.7226 17.5409C30.7226 18.2934 30.1285 18.8967 29.3865 18.9399C29.2869 18.4073 29.0657 17.9211 28.7569 17.5003L28.2361 13.5539H29.3067C30.088 13.5539 30.7226 14.1886 30.7226 14.9693L30.7226 17.5409Z" fill="#3A3A3A"/>
</g>
<defs>
<filter id="filter0_d_7742_310" x="0" y="0" width="34.0627" height="43" filterUnits="userSpaceOnUse" color-interpolation-filters="sRGB">
<feFlood flood-opacity="0" result="BackgroundImageFix"/>
<feColorMatrix in="SourceAlpha" type="matrix" values="0 0 0 0 0 0 0 0 0 0 0 0 0 0 0 0 0 0 127 0" result="hardAlpha"/>
<feOffset dy="2"/>
<feGaussianBlur stdDeviation="1"/>
<feComposite in2="hardAlpha" operator="out"/>
<feColorMatrix type="matrix" values="0 0 0 0 0 0 0 0 0 0 0 0 0 0 0 0 0 0 0.25 0"/>
<feBlend mode="normal" in2="BackgroundImageFix" result="effect1_dropShadow_7742_310"/>
<feBlend mode="normal" in="SourceGraphic" in2="effect1_dropShadow_7742_310" result="shape"/>
</filter>
</defs>
</svg>
