<svg width="76" height="76" viewBox="0 0 76 76" fill="none" xmlns="http://www.w3.org/2000/svg">
<mask id="mask0_50_69" style="mask-type:luminance" maskUnits="userSpaceOnUse" x="0" y="0" width="76" height="76">
<path d="M75.9376 0.265625H0.34375V75.8594H75.9376V0.265625Z" fill="white"/>
</mask>
<g mask="url(#mask0_50_69)">
<path opacity="0.06" d="M55.0286 0.265625H21.2527C9.70499 0.265625 0.34375 9.62687 0.34375 21.1745V54.9505C0.34375 66.4981 9.70499 75.8594 21.2527 75.8594H55.0286C66.5763 75.8594 75.9375 66.4981 75.9375 54.9505V21.1745C75.9375 9.62687 66.5763 0.265625 55.0286 0.265625Z" fill="#830C04"/>
<path d="M38.1408 63.8028C52.3568 63.8028 63.8812 52.2785 63.8812 38.0624C63.8812 23.8464 52.3568 12.322 38.1408 12.322C23.9247 12.322 12.4004 23.8464 12.4004 38.0624C12.4004 52.2785 23.9247 63.8028 38.1408 63.8028Z" fill="#830C04"/>
<path d="M38.1406 21.8447V54.2804" stroke="white" stroke-width="2.41257" stroke-linecap="round" stroke-linejoin="round"/>
<path d="M45.5125 27.7422H34.4549C33.0863 27.7422 31.7738 28.2858 30.806 29.2536C29.8383 30.2212 29.2947 31.5338 29.2947 32.9023C29.2947 34.2709 29.8383 35.5834 30.806 36.5512C31.7738 37.5189 33.0863 38.0626 34.4549 38.0626H41.8266C43.1951 38.0626 44.5077 38.6062 45.4754 39.574C46.4432 40.5416 46.9868 41.8542 46.9868 43.2228C46.9868 44.5914 46.4432 45.9039 45.4754 46.8716C44.5077 47.8393 43.1951 48.383 41.8266 48.383H29.2947" stroke="white" stroke-width="2.41257" stroke-linecap="round" stroke-linejoin="round"/>
</g>
</svg>
