<svg width="170" height="33" viewBox="0 0 170 33" fill="none" xmlns="http://www.w3.org/2000/svg">
<g clip-path="url(#clip0_50_83)">
<path d="M16 7.5C16 3.35785 19.3578 0 23.4999 0H31V7.5C31 11.6422 27.6422 15 23.4999 15C19.3578 15 16 11.6422 16 7.5Z" fill="white"/>
<path d="M23.548 32.9412C19.4059 32.9412 16.0481 29.5833 16.0481 25.4412V17.9412H23.548C27.6903 17.9412 31.0481 21.299 31.0481 25.4412C31.0481 29.5833 27.6903 32.9412 23.548 32.9412Z" fill="#353535"/>
<path d="M15 16.0036C15 7.71725 8.28428 1 0 1V25.4983C0 29.6413 3.35786 33 7.50013 33C11.6423 33 15 29.6413 15 25.4983V16.0036Z" fill="#791818"/>
<path d="M49.432 25.168C47.864 25.168 46.424 24.8 45.112 24.064C43.8 23.328 42.76 22.312 41.992 21.016C41.224 19.704 40.84 18.224 40.84 16.576C40.84 14.944 41.224 13.48 41.992 12.184C42.76 10.872 43.8 9.848 45.112 9.112C46.424 8.376 47.864 8.008 49.432 8.008C51.016 8.008 52.456 8.376 53.752 9.112C55.064 9.848 56.096 10.872 56.848 12.184C57.616 13.48 58 14.944 58 16.576C58 18.224 57.616 19.704 56.848 21.016C56.096 22.312 55.064 23.328 53.752 24.064C52.44 24.8 51 25.168 49.432 25.168ZM49.432 22.168C50.44 22.168 51.328 21.944 52.096 21.496C52.864 21.032 53.464 20.376 53.896 19.528C54.328 18.68 54.544 17.696 54.544 16.576C54.544 15.456 54.328 14.48 53.896 13.648C53.464 12.8 52.864 12.152 52.096 11.704C51.328 11.256 50.44 11.032 49.432 11.032C48.424 11.032 47.528 11.256 46.744 11.704C45.976 12.152 45.376 12.8 44.944 13.648C44.512 14.48 44.296 15.456 44.296 16.576C44.296 17.696 44.512 18.68 44.944 19.528C45.376 20.376 45.976 21.032 46.744 21.496C47.528 21.944 48.424 22.168 49.432 22.168ZM74.8278 25H71.4678L63.8598 13.504V25H60.4998V8.224H63.8598L71.4678 19.744V8.224H74.8278V25ZM81.5082 22.336H87.0282V25H78.1482V8.248H81.5082V22.336ZM102.484 8.248L96.8198 19.168V25H93.4598V19.168L87.7718 8.248H91.5638L95.1638 15.904L98.7398 8.248H102.484ZM122.686 8.248V25H119.326V14.104L114.838 25H112.294L107.782 14.104V25H104.422V8.248H108.238L113.566 20.704L118.894 8.248H122.686ZM129.368 8.248V25H126.008V8.248H129.368ZM147.015 25H143.655L136.047 13.504V25H132.687V8.224H136.047L143.655 19.744V8.224H147.015V25ZM153.696 10.96V15.16H159.336V17.824H153.696V22.264H160.056V25H150.336V8.224H160.056V10.96H153.696Z" fill="white"/>
</g>
<defs>
<clipPath id="clip0_50_83">
<rect width="170" height="33" fill="white"/>
</clipPath>
</defs>
</svg>
